<svg width="23" height="24" viewBox="0 0 23 24" fill="none" xmlns="http://www.w3.org/2000/svg">
<path d="M7.44528 21.01C7.44528 22.11 8.37397 23 9.5218 23C10.6696 23 11.5983 22.11 11.5983 21.01H7.44528ZM9.5218 6C12.4018 6 14.7392 8.24 14.7392 11V18H4.30441V11C4.30441 8.24 6.6418 6 9.5218 6ZM9.5218 1.5C8.65571 1.5 7.95658 2.17 7.95658 3V4.17C4.68006 4.85 2.21745 7.65 2.21745 11V17L0.130493 19V20H18.9131V19L16.8261 17V11C16.8261 7.65 14.3635 4.85 11.087 4.17V3C11.087 2.17 10.3879 1.5 9.5218 1.5ZM10.5653 8H8.47832V11H5.34788V13H8.47832V16H10.5653V13H13.6957V11H10.5653V8Z" fill="#93969A"/>
</svg>
