<svg width="32" height="33" viewBox="0 0 32 33" fill="none" xmlns="http://www.w3.org/2000/svg">
<g clip-path="url(#clip0_399_64655)">
<path d="M4 23.0075C4 23.7439 4.59695 24.3408 5.33333 24.3408H26.6667C27.403 24.3408 28 23.7439 28 23.0075C28 22.2711 27.403 21.6742 26.6667 21.6742H5.33333C4.59695 21.6742 4 22.2711 4 23.0075ZM4 16.3408C4 17.0772 4.59695 17.6742 5.33333 17.6742H26.6667C27.403 17.6742 28 17.0772 28 16.3408C28 15.6044 27.403 15.0075 26.6667 15.0075H5.33333C4.59695 15.0075 4 15.6044 4 16.3408ZM5.33333 8.34082C4.59695 8.34082 4 8.93777 4 9.67415C4 10.4105 4.59695 11.0075 5.33333 11.0075H26.6667C27.403 11.0075 28 10.4105 28 9.67415C28 8.93777 27.403 8.34082 26.6667 8.34082H5.33333Z" fill="#333333"/>
</g>
<defs>
<clipPath id="clip0_399_64655">
<rect width="32" height="32" fill="white" transform="translate(0 0.34082)"/>
</clipPath>
</defs>
</svg>
